<svg xmlns="http://www.w3.org/2000/svg" version="1.1" xmlns:xlink="http://www.w3.org/1999/xlink" xmlns:svgjs="http://svgjs.dev/svgjs" width="1500" height="1500" viewBox="0 0 1500 1500"><rect width="1500" height="1500" fill="#ffffff"></rect><g transform="matrix(0.6666666666666666,0,0,0.6666666666666666,248.80236428946228,322.62580645161285)"><svg viewBox="0 0 291 248" data-background-color="#ffffff" preserveAspectRatio="xMidYMid meet" height="1278" width="1500" xmlns="http://www.w3.org/2000/svg" xmlns:xlink="http://www.w3.org/1999/xlink"><g id="tight-bounds" transform="matrix(1,0,0,1,0.34851199176648606,0.4000000000000057)"><svg viewBox="0 0 290.302976016467 247.2" height="247.2" width="290.302976016467"><g><svg viewBox="0 0 395.52 336.7948387633959" height="247.2" width="290.302976016467"><g transform="matrix(1,0,0,1,0,208.15272189459762)"><svg viewBox="0 0 395.52 128.64211686879824" height="128.64211686879824" width="395.52"><g id="textblocktransform"><svg viewBox="0 0 395.52 128.64211686879824" height="128.64211686879824" width="395.52" id="textblock"><g><svg viewBox="0 0 395.52 128.64211686879824" height="128.64211686879824" width="395.52"><g transform="matrix(1,0,0,1,0,0)"><svg width="395.52" viewBox="4 -36.01 110.71 36.01" height="128.64211686879824" data-palette-color="#6575a8"><path d="M4-4.81L4-11.35Q4-12.35 4.38-13.22 4.76-14.09 5.41-14.75 6.05-15.41 6.93-15.78 7.81-16.16 8.79-16.16L8.79-16.16 21.19-16.16 21.19-21.19 5.49-21.19 5.49-26 21.19-26Q22.19-26 23.07-25.62 23.95-25.24 24.6-24.6 25.24-23.95 25.62-23.07 26-22.19 26-21.19L26-21.19 26 0 21.19 0 21.19-4.39Q21.12-3.49 20.7-2.69 20.29-1.88 19.64-1.28 18.99-0.68 18.16-0.34 17.33 0 16.41 0L16.41 0 8.79 0Q7.81 0 6.93-0.38 6.05-0.76 5.41-1.4 4.76-2.05 4.38-2.93 4-3.81 4-4.81L4-4.81ZM8.79-11.35L8.79-4.81 21.19-4.81 21.19-11.35 8.79-11.35ZM65.6-21.19L54.61-21.19 54.61 0 49.8 0 49.8-21.19 38.79-21.19 38.79 0 34.01 0 34.01-26 38.79-26 38.79-21.41Q38.84-22.36 39.23-23.21 39.62-24.05 40.27-24.67 40.92-25.29 41.77-25.65 42.62-26 43.6-26L43.6-26 49.8-26Q50.75-26 51.61-25.65 52.46-25.29 53.12-24.67 53.78-24.05 54.18-23.21 54.59-22.36 54.61-21.41L54.61-21.41Q54.66-22.36 55.04-23.21 55.42-24.05 56.06-24.67 56.71-25.29 57.57-25.65 58.42-26 59.4-26L59.4-26 65.6-26Q66.6-26 67.48-25.62 68.36-25.24 69-24.6 69.65-23.95 70.03-23.07 70.41-22.19 70.41-21.19L70.41-21.19 70.41 0 65.6 0 65.6-21.19ZM78.66-26L83.47-26 83.47 0 78.66 0 78.66-26ZM78.41-31.01L78.41-36.01 83.71-36.01 83.71-31.01 78.41-31.01ZM114.71-21.19L114.71 0 109.9 0 109.9-21.19 96.5-21.19 96.5 0 91.72 0 91.72-26 96.5-26 96.5-21.41Q96.55-22.36 96.94-23.21 97.33-24.05 97.98-24.67 98.63-25.29 99.48-25.65 100.33-26 101.31-26L101.31-26 109.9-26Q110.91-26 111.78-25.62 112.66-25.24 113.31-24.6 113.96-23.95 114.34-23.07 114.71-22.19 114.71-21.19L114.71-21.19Z" opacity="1" transform="matrix(1,0,0,1,0,0)" fill="#000000" class="wordmark-text-0" data-fill-palette-color="primary" id="text-0"></path></svg></g></svg></g></svg></g></svg></g><g transform="matrix(1,0,0,1,86.80450509332324,0)"><svg viewBox="0 0 221.9109898133535 177.7834055126792" height="177.7834055126792" width="221.9109898133535"><g><svg xmlns="http://www.w3.org/2000/svg" xmlns:xlink="http://www.w3.org/1999/xlink" version="1.1" x="0" y="0" viewBox="2.153 12.18 95 76.10900000000001" enable-background="new 0 0 100 100" xml:space="preserve" height="177.7834055126792" width="221.9109898133535" class="icon-icon-0" data-fill-palette-color="accent" id="icon-0"><g fill="#001f3f" data-fill-palette-color="accent"><circle fill="none" cx="49.651" cy="72.829" r="1.8"></circle><path fill="none" d="M6.159 65.021H93.144V15.996H6.159zM56.586 46.886L68.096 41.953V41.891L56.586 36.959V33.67L71.477 40.495V43.349L56.586 50.174zM51.652 28.924H54.785L48.146 51.414H45.013zM27.825 43.256V40.588L42.715 33.67V36.959L31.455 41.891V41.953L42.715 46.886V50.174z"></path><path d="M94.318 12.18H5.063C3.5 12.18 2.153 13.368 2.153 14.932V74.538C2.153 76.101 3.5 77.415 5.063 77.415H40.209C40.168 78.311 39.888 82.168 38.054 84.038 36.609 85.512 34.601 86.892 35.385 87.601 35.575 88.037 36.476 88.289 38.525 88.289H61.647C63.981 88.289 64.797 87.907 64.805 87.336H64.725V87.148H64.643C64.539 86.377 62.981 85.241 61.803 84.043 59.969 82.173 59.69 78.316 59.649 77.42H94.323C95.887 77.42 97.153 76.107 97.153 74.543V14.934C97.15 13.368 95.883 12.18 94.318 12.18M49.651 74.676A1.844 1.844 0 0 1 47.804 72.83 1.846 1.846 0 1 1 51.498 72.83 1.844 1.844 0 0 1 49.651 74.676M93.145 65.021H6.159V15.996H93.144z" fill="#000000" data-fill-palette-color="accent"></path><polygon points="42.715,46.886 31.455,41.953 31.455,41.891 42.715,36.959 42.715,33.67 27.825,40.588 27.825,43.256    27.825,43.257 42.715,50.174  " fill="#000000" data-fill-palette-color="accent"></polygon><polygon points="48.146,51.414 54.785,28.924 51.652,28.924 45.013,51.414 45.014,51.414  " fill="#000000" data-fill-palette-color="accent"></polygon><polygon points="71.477,40.495 56.586,33.67 56.586,36.959 68.096,41.891 68.096,41.953 56.586,46.886 56.586,50.174    71.477,43.349  " fill="#000000" data-fill-palette-color="accent"></polygon></g></svg></g></svg></g><g></g></svg></g><defs></defs></svg><rect width="290.302976016467" height="247.2" fill="none" stroke="none" visibility="hidden"></rect></g></svg></g></svg>